<svg width="720" height="720" viewBox="0 0 720 720" fill="none" xmlns="http://www.w3.org/2000/svg">
  <rect width="720" height="720" rx="48" fill="url(#bg)"/>
  <circle cx="560" cy="150" r="96" fill="url(#orb)" fill-opacity="0.9"/>
  <circle cx="170" cy="560" r="120" fill="#B9E6FF" fill-opacity="0.65"/>
  <rect x="120" y="120" width="480" height="320" rx="32" fill="#07182E"/>
  <rect x="120" y="120" width="480" height="320" rx="32" stroke="#244B7A" stroke-width="4"/>
  <circle cx="170" cy="170" r="12" fill="#FF7D6B"/>
  <circle cx="206" cy="170" r="12" fill="#FFD76A"/>
  <circle cx="242" cy="170" r="12" fill="#36D399"/>
  <rect x="168" y="218" width="160" height="18" rx="9" fill="#153862"/>
  <rect x="168" y="258" width="260" height="18" rx="9" fill="#123254"/>
  <rect x="168" y="298" width="210" height="18" rx="9" fill="#123254"/>
  <rect x="168" y="338" width="294" height="18" rx="9" fill="#123254"/>
  <rect x="466" y="214" width="86" height="126" rx="24" fill="url(#card)"/>
  <path d="M250 542L312 480L372 542" stroke="#0A4D8C" stroke-width="26" stroke-linecap="round" stroke-linejoin="round"/>
  <path d="M354 454L394 332L434 454" stroke="#1B9FFF" stroke-width="24" stroke-linecap="round" stroke-linejoin="round"/>
  <rect x="150" y="480" width="196" height="112" rx="28" fill="#FFFFFF" fill-opacity="0.78"/>
  <rect x="376" y="480" width="196" height="112" rx="28" fill="#EAF7FF"/>
  <path d="M204 522H290" stroke="#1AA6E6" stroke-width="16" stroke-linecap="round"/>
  <path d="M424 522H522" stroke="#69B7FF" stroke-width="16" stroke-linecap="round"/>
  <path d="M204 558H264" stroke="#6A7F99" stroke-width="12" stroke-linecap="round"/>
  <path d="M424 558H506" stroke="#6A7F99" stroke-width="12" stroke-linecap="round"/>
  <defs>
    <linearGradient id="bg" x1="97" y1="51" x2="619" y2="648" gradientUnits="userSpaceOnUse">
      <stop stop-color="#F4FBFF"/>
      <stop offset="1" stop-color="#D9ECFF"/>
    </linearGradient>
    <linearGradient id="orb" x1="464" y1="54" x2="656" y2="246" gradientUnits="userSpaceOnUse">
      <stop stop-color="#D8F3FF"/>
      <stop offset="1" stop-color="#8BCBFF"/>
    </linearGradient>
    <linearGradient id="card" x1="509" y1="214" x2="509" y2="340" gradientUnits="userSpaceOnUse">
      <stop stop-color="#183D66"/>
      <stop offset="1" stop-color="#0A213C"/>
    </linearGradient>
  </defs>
</svg>
