<svg width="900" height="900" viewBox="0 0 900 900" fill="none" xmlns="http://www.w3.org/2000/svg">
  <rect width="900" height="900" rx="48" fill="url(#bg)"/>
  <circle cx="700" cy="170" r="120" fill="url(#glow)"/>
  <circle cx="210" cy="700" r="140" fill="#D7F1FF"/>
  <g opacity="0.32" stroke="#9ED8FF" stroke-width="2">
    <path d="M92 142H290"/>
    <path d="M92 176H252"/>
    <path d="M86 252H236"/>
    <path d="M634 160H792"/>
    <path d="M654 196H816"/>
    <path d="M620 648H808"/>
    <path d="M100 630H262"/>
  </g>
  <g opacity="0.55">
    <rect x="96" y="214" width="170" height="128" rx="24" fill="#F5FBFF" stroke="#BFE4FF" stroke-width="3"/>
    <path d="M124 250H222" stroke="#85C8FF" stroke-width="10" stroke-linecap="round"/>
    <path d="M124 284H198" stroke="#A6D8FF" stroke-width="10" stroke-linecap="round"/>
    <path d="M642 566H804" stroke="#9FD5FF" stroke-width="10" stroke-linecap="round"/>
    <path d="M642 602H760" stroke="#BCDFFF" stroke-width="10" stroke-linecap="round"/>
  </g>
  <g transform="translate(228 112)">
    <ellipse cx="238" cy="630" rx="170" ry="30" fill="#D4ECFF"/>
    <path d="M212 220C170 244 152 296 160 354L178 510C181 552 214 584 256 584H304C348 584 382 548 382 504V346C382 277 328 220 260 220H212Z" fill="url(#body)"/>
    <path d="M214 226C173 249 155 301 163 356L181 507C184 547 216 576 255 576H300C343 576 374 545 374 503V348C374 283 324 232 260 232H214V226Z" stroke="#8CCFFF" stroke-width="4"/>
    <path d="M364 296L482 246C503 238 526 253 528 275L534 360C536 381 518 398 497 395L377 381L364 296Z" fill="url(#tablet)"/>
    <path d="M381 295L499 258C511 254 522 262 523 274L528 356C529 369 519 379 506 378L390 365L381 295Z" stroke="#D7F2FF" stroke-width="3"/>
    <path d="M404 290L482 268" stroke="#8AC9FF" stroke-width="8" stroke-linecap="round"/>
    <path d="M406 319L494 295" stroke="#A7DBFF" stroke-width="8" stroke-linecap="round"/>
    <path d="M410 349L474 332" stroke="#A7DBFF" stroke-width="8" stroke-linecap="round"/>
    <ellipse cx="230" cy="132" rx="104" ry="118" fill="url(#head)"/>
    <path d="M132 130C132 65 176 16 230 16C284 16 328 65 328 130C328 195 284 244 230 244C176 244 132 195 132 130Z" stroke="#A8E3FF" stroke-width="4"/>
    <ellipse cx="202" cy="125" rx="18" ry="14" fill="#46C6FF"/>
    <ellipse cx="258" cy="125" rx="18" ry="14" fill="#46C6FF"/>
    <ellipse cx="206" cy="121" rx="6" ry="6" fill="#E8FCFF"/>
    <ellipse cx="262" cy="121" rx="6" ry="6" fill="#E8FCFF"/>
    <path d="M200 178C214 190 246 190 260 178" stroke="#78CFFF" stroke-width="6" stroke-linecap="round"/>
    <path d="M316 110C346 112 372 135 374 166" stroke="#123F6C" stroke-width="18" stroke-linecap="round"/>
    <circle cx="376" cy="170" r="24" fill="#0D2A4A"/>
    <circle cx="376" cy="170" r="14" fill="#6EE8FF"/>
    <path d="M190 244L172 324C167 349 180 374 203 384L242 401L252 356L221 338L240 272L190 244Z" fill="url(#arm)"/>
    <path d="M300 268L354 320L398 364L437 353L404 313L342 252L300 268Z" fill="url(#arm2)"/>
    <path d="M425 350L445 338L468 355L456 376L434 381L425 350Z" fill="#F8FDFF"/>
    <path d="M447 333L465 320" stroke="#B0DBFF" stroke-width="8" stroke-linecap="round"/>
    <path d="M443 350L470 344" stroke="#B0DBFF" stroke-width="8" stroke-linecap="round"/>
    <path d="M444 366L466 376" stroke="#B0DBFF" stroke-width="8" stroke-linecap="round"/>
    <rect x="192" y="430" width="156" height="92" rx="24" fill="#F6FCFF" fill-opacity="0.9" stroke="#C8E5FF" stroke-width="3"/>
    <rect x="360" y="430" width="132" height="92" rx="24" fill="#E9F7FF" stroke="#C8E5FF" stroke-width="3"/>
    <path d="M224 462H306" stroke="#2A8BDA" stroke-width="12" stroke-linecap="round"/>
    <path d="M224 492H280" stroke="#7F95AD" stroke-width="10" stroke-linecap="round"/>
    <path d="M390 462H454" stroke="#2A8BDA" stroke-width="12" stroke-linecap="round"/>
    <path d="M390 492H438" stroke="#7F95AD" stroke-width="10" stroke-linecap="round"/>
  </g>
  <defs>
    <linearGradient id="bg" x1="95" y1="48" x2="775" y2="840" gradientUnits="userSpaceOnUse">
      <stop stop-color="#F9FDFF"/>
      <stop offset="1" stop-color="#E3F1FF"/>
    </linearGradient>
    <radialGradient id="glow" cx="0" cy="0" r="1" gradientUnits="userSpaceOnUse" gradientTransform="translate(700 170) rotate(90) scale(120)">
      <stop stop-color="#C7EEFF"/>
      <stop offset="1" stop-color="#C7EEFF" stop-opacity="0"/>
    </radialGradient>
    <linearGradient id="body" x1="160" y1="220" x2="390" y2="584" gradientUnits="userSpaceOnUse">
      <stop stop-color="#FDFEFF"/>
      <stop offset="1" stop-color="#DDEFFF"/>
    </linearGradient>
    <linearGradient id="tablet" x1="386" y1="246" x2="535" y2="395" gradientUnits="userSpaceOnUse">
      <stop stop-color="#EAF7FF"/>
      <stop offset="1" stop-color="#BEDFFF"/>
    </linearGradient>
    <linearGradient id="head" x1="145" y1="28" x2="305" y2="228" gradientUnits="userSpaceOnUse">
      <stop stop-color="#FFFFFF"/>
      <stop offset="1" stop-color="#D8EBFB"/>
    </linearGradient>
    <linearGradient id="arm" x1="172" y1="244" x2="252" y2="401" gradientUnits="userSpaceOnUse">
      <stop stop-color="#FDFEFF"/>
      <stop offset="1" stop-color="#D7EAF9"/>
    </linearGradient>
    <linearGradient id="arm2" x1="300" y1="252" x2="468" y2="381" gradientUnits="userSpaceOnUse">
      <stop stop-color="#FFFFFF"/>
      <stop offset="1" stop-color="#D9EDFC"/>
    </linearGradient>
  </defs>
</svg>
